<svg width="26" height="26" viewBox="0 0 26 26" fill="none" xmlns="http://www.w3.org/2000/svg">
<path d="M19.1206 12.0499V9.165C19.1206 7.62964 18.5107 6.15717 17.4251 5.07152C16.3394 3.98586 14.8669 3.37594 13.3316 3.37594C11.7962 3.37594 10.3238 3.98586 9.2381 5.07152C8.15244 6.15717 7.54252 7.62964 7.54252 9.165V12.0499C6.90031 12.1624 6.31818 12.4974 5.89815 12.9961C5.47811 13.4948 5.24695 14.1253 5.24518 14.7773V20.2262C5.24585 20.9627 5.53879 21.669 6.05968 22.1898C6.58057 22.7106 7.28684 23.0034 8.02342 23.0039H18.6423C19.3785 23.0031 20.0843 22.7103 20.6048 22.1897C21.1254 21.6692 21.4182 20.9634 21.419 20.2272V14.7773C21.4173 14.1252 21.186 13.4944 20.7658 12.9957C20.3455 12.497 19.7631 12.1621 19.1206 12.0499ZM14.1263 17.2052V19.1445C14.129 19.2504 14.1104 19.3558 14.0718 19.4544C14.0331 19.553 13.9751 19.6429 13.9011 19.7187C13.8272 19.7945 13.7388 19.8548 13.6412 19.896C13.5436 19.9371 13.4388 19.9583 13.3329 19.9583C13.2269 19.9583 13.1221 19.9371 13.0245 19.896C12.9269 19.8548 12.8385 19.7945 12.7646 19.7187C12.6906 19.6429 12.6326 19.553 12.5939 19.4544C12.5553 19.3558 12.5367 19.2504 12.5394 19.1445V17.2057C12.3864 17.0887 12.2621 16.9384 12.1758 16.7662C12.0894 16.5941 12.0434 16.4045 12.0412 16.2119C12.0479 15.8739 12.1869 15.552 12.4283 15.3154C12.6697 15.0787 12.9943 14.9462 13.3323 14.9462C13.6704 14.9462 13.995 15.0787 14.2364 15.3154C14.4778 15.552 14.6168 15.8739 14.6235 16.2119C14.6213 16.4043 14.5754 16.5937 14.4893 16.7658C14.4032 16.9379 14.279 17.0881 14.1263 17.2052ZM17.0051 12.0016H9.65959V9.165C9.65388 8.67905 9.74466 8.1968 9.92667 7.74619C10.1087 7.29558 10.3783 6.88557 10.7199 6.53992C11.0615 6.19426 11.4683 5.91984 11.9168 5.73254C12.3652 5.54525 12.8464 5.44881 13.3323 5.44881C13.8183 5.44881 14.2995 5.54525 14.7479 5.73254C15.1964 5.91984 15.6032 6.19426 15.9448 6.53992C16.2864 6.88557 16.556 7.29558 16.738 7.74619C16.92 8.1968 17.0108 8.67905 17.0051 9.165V12.0016Z" fill="#ABB3BB"/>
</svg>
